<svg width="716.94" height="197.35" version="1.1" viewBox="0 0 716.94 197.35" xmlns="http://www.w3.org/2000/svg">
 <circle cx="98.675" cy="98.675" r="98.675" fill="#4f332f" style="paint-order:markers fill stroke"/>
 <path d="m175.77 125.74s0.68073 19.257-18.411 18.808c-7.6126-0.17899-18.014-3.2089-17.462-24.786l-0.0216-50.844c0.0405-22.887-21.921-35.364-37.616-35.232-15.695 0.13245-38.543 7.5497-38.543 36.689s30.264 39.758 37.881 40.53l-0.5298 36.159-21.06-0.39735c-0.21571-9.5429-7.7491-14.739-14.702-14.702-6.9529 0.0374-15.497 2.7815-15.497 14.702l-20-0.2649c0.12913-15.079-10.331-76.026 33.907-76.026" fill="none" stroke="#f7901e" stroke-linecap="round" stroke-linejoin="round" stroke-width="23.301"/>
 <ellipse cx="101.6" cy="71.43" rx="9.5364" ry="10.066" fill="#f7901e" style="paint-order:markers fill stroke"/>
 <g fill="#4f332f">
  <path d="m238.16 103.4 7.2542-25.171-5.244-16.693h-4.9818v-1.6606h27.094v1.6606h-5.1566l13.023 41.34 10.488-41.34h-8.8274v-1.6606h17.48v1.6606h-5.7684l-16.082 60.393h-7.7786l-12.935-39.505-11.362 39.505h-7.6038l-22.025-60.393h-4.1078v-1.6606h28.405v1.6606h-6.118z"/>
  <path d="m291.18 59.87h25.696q13.197 0 19.665 3.8456 6.4676 3.7582 6.4676 13.547 0 10.838-7.866 14.945-7.3416 3.7582-20.539 3.7582h-0.6992v23.423h10.925v1.6606h-33.649v-1.6606h5.681v-57.859h-5.681zm22.724 1.6606v32.775h1.8354q5.244 0 7.2542-3.5834 2.0102-3.5834 2.0102-11.624v-4.1952q0-7.429-1.9228-10.401-1.8354-2.9716-6.8172-2.9716z"/>
  <path d="m378.58 120.18q4.2826 0 5.4188-1.5732 1.2236-1.5732 1.2236-5.3314v-16.956h-5.5936v-1.9228h25.171v1.9228h-3.4086v24.647h-1.311q-1.5732-2.185-4.4574-2.185-1.2236 0-7.3416 1.5732-6.0306 1.5732-10.313 1.5732-14.246 0-22.112-7.6912-7.7786-7.6912-7.7786-23.074 0-15.47 8.1282-23.86 8.2156-8.3904 22.025-8.3904 5.3314 0 10.663 1.3984 5.4188 1.311 6.2928 1.311 0.87399 0 1.311-0.3496 0.437-0.437 0.9614-1.3984h0.9614l0.6992 18.966h-1.5732q-4.2826-8.4778-8.6526-13.285-4.2826-4.8944-9.614-4.8944-13.372 0-13.372 26.133v6.9046q0 13.11 3.2338 19.84 3.3212 6.6424 9.4392 6.6424z"/>
  <path d="m437.72 81.895q-3.2338 0-5.681 4.1952-2.4472 4.1952-2.4472 9.9636v23.423h6.2054v1.5732h-27.269v-1.5732h4.807v-38.456h-4.807v-1.5732h21.063v8.3904q1.1362-4.4574 4.37-6.8172 3.2338-2.4472 7.3416-2.4472t6.6424 2.3598q2.622 2.2724 2.622 6.555 0 4.1952-1.9228 6.4676-1.9228 2.2724-5.9432 2.2724-3.933 0-5.8558-2.622-1.8354-2.622-0.437-7.2542h3.1464q2.185-4.4574-1.8354-4.4574z"/>
  <path d="m471.32 100.51h2.5346v-6.7298q0-8.303-0.9614-11.1-0.874-2.8842-3.496-2.8842-1.5732 0-2.8842 0.874-1.2236 0.7866-1.2236 2.2724 0 1.3984 0.5244 2.8842h2.185q0.6992 1.8354 0.6992 4.4574 0 2.5346-2.185 4.4574-2.185 1.8354-5.5062 1.8354-7.5164 0-7.5164-7.2542 0-10.75 18.267-10.75 10.401 0 14.334 3.5834 4.0204 3.496 4.0204 12.935v17.742q0 4.5448 2.5346 4.5448 2.9716 0 3.496-9.0022l1.311 0.0874q-0.3496 7.6912-2.8842 10.575-2.5346 2.8842-8.303 2.8842-10.488 0-12.061-6.4676-1.1362 3.3212-3.4086 4.8944-2.2724 1.5732-6.6424 1.5732-12.935 0-12.935-10.575 0-6.2054 4.8944-8.4778 4.9818-2.3598 15.208-2.3598zm-3.496 10.75q0 4.5448 0.437 5.8558 0.5244 1.311 1.8354 1.311 1.3984 0 2.5346-2.185 1.2236-2.2724 1.2236-6.2054v-8.1282h-0.6118q-5.4188 0-5.4188 7.9534z"/>
  <path d="m529.36 97.539q0-9.0022-0.874-12.061-0.874-3.1464-3.4086-3.1464-2.5346 0-4.5448 3.3212-2.0102 3.2338-2.0102 8.74v15.994q0 3.7582 1.4858 6.3802t4.37 2.622q2.8842 0 3.933-3.8456 1.0488-3.8456 1.0488-13.46zm-11.012-18.092v6.9046q3.4086-7.7786 12.061-7.7786 7.5164 0 11.624 5.4188 4.1952 5.4188 4.1952 16.431 0 11.012-4.5448 16.256-4.4574 5.244-13.46 5.244-4.1952 0-6.2928-1.0488-2.0976-1.0488-3.4086-3.2338v22.637h11.275v1.5732h-32.338v-1.5732h4.807v-59.257h-4.6322v-1.5732z"/>
  <path d="m548.84 55.5h21.063v31.988q1.3984-4.0204 4.2826-6.4676 2.8842-2.4472 8.74-2.4472 13.547 0 13.547 14.596v26.307h4.8944v1.5732h-24.734v-1.5732h3.5834v-28.405q0-5.244-0.6992-6.7298-0.6992-1.5732-2.5346-1.5732-2.7968 0-4.9818 3.6708-2.0976 3.6708-2.0976 8.9148v24.122h3.7582v1.5732h-24.822v-1.5732h4.807v-62.404h-4.807z"/>
  <path d="m605.32 91.421q0-15.295 7.6912-23.86 7.7786-8.6526 21.937-8.6526t21.326 8.2156q7.2542 8.1282 7.2542 23.161 0 28.58-24.822 30.852v0.6118q4.9818 0.5244 7.3416 2.7094 2.4472 2.185 3.6708 5.7684 1.2236 3.6708 2.185 4.9818t2.8842 1.311q3.3212 0 3.933-6.992l1.9228 0.1748q-0.1748 5.7684-3.5834 8.8274-3.4086 3.059-9.5266 3.059-6.0306 0-9.3518-3.059-3.3212-2.9716-5.0692-8.8274-1.1362-3.5834-1.9228-4.6322-0.78659-1.0488-2.0102-1.0488-2.4472 0-6.4676 3.5834l-1.2236-1.3984q3.496-3.496 7.9534-4.2826v-0.5244q-11.886-1.2236-18.004-9.0022-6.118-7.7786-6.118-20.976zm40.204 2.622v-6.4676q0-15.994-1.5732-20.189-1.748-4.807-4.9818-5.9432-1.8354-0.6992-4.4574-0.6992t-4.5448 0.6992q-1.8354 0.6992-3.059 2.4472-1.2236 1.748-2.0102 3.6708-0.69919 1.9228-1.1362 5.4188-0.5244 5.0692-0.5244 14.945v6.2928q0 10.663 0.7866 15.208 0.87399 4.4574 2.0976 6.3802 2.7094 4.2826 8.3904 4.2826 6.9046 0 8.9148-5.7684 2.0976-5.8558 2.0976-20.277z"/>
  <path d="m668.95 59.87h31.464v1.9228h-9.2644v57.334h3.1464q7.429 0 11.799-4.5448 4.4574-4.5448 9.0022-13.984h1.8354l-1.6606 20.452h-46.322v-1.9228h5.1566v-57.334h-5.1566z"/>
 </g>
</svg>
