<?xml version="1.0" encoding="UTF-8" standalone="no"?>
<!-- Created with Inkscape (http://www.inkscape.org/) -->

<svg
   xmlns:dc="http://purl.org/dc/elements/1.1/"
   xmlns:cc="http://creativecommons.org/ns#"
   xmlns:rdf="http://www.w3.org/1999/02/22-rdf-syntax-ns#"
   xmlns:svg="http://www.w3.org/2000/svg"
   xmlns="http://www.w3.org/2000/svg"
   xmlns:sodipodi="http://sodipodi.sourceforge.net/DTD/sodipodi-0.dtd"
   xmlns:inkscape="http://www.inkscape.org/namespaces/inkscape"
   version="1.1"
   id="svg887"
   width="716.93652"
   height="197.351"
   viewBox="0 0 716.93652 197.351"
   sodipodi:docname="logo.inkscape.svg"
   inkscape:version="0.92.3 (2405546, 2018-03-11)">
  <metadata
     id="metadata893">
    <rdf:RDF>
      <cc:Work
         rdf:about="">
        <dc:format>image/svg+xml</dc:format>
        <dc:type
           rdf:resource="http://purl.org/dc/dcmitype/StillImage" />
        <dc:title></dc:title>
      </cc:Work>
    </rdf:RDF>
  </metadata>
  <defs
     id="defs891" />
  <sodipodi:namedview
     pagecolor="#ffffff"
     bordercolor="#666666"
     borderopacity="1"
     objecttolerance="10"
     gridtolerance="10"
     guidetolerance="10"
     inkscape:pageopacity="0"
     inkscape:pageshadow="2"
     inkscape:window-width="1680"
     inkscape:window-height="1022"
     id="namedview889"
     showgrid="false"
     inkscape:zoom="1.3346641"
     inkscape:cx="401.21011"
     inkscape:cy="116.46721"
     inkscape:window-x="1680"
     inkscape:window-y="0"
     inkscape:window-maximized="1"
     inkscape:current-layer="svg887"
     fit-margin-top="0"
     fit-margin-left="0"
     fit-margin-right="0"
     fit-margin-bottom="0" />
  <circle
     style="opacity:1;fill:#4f332f;fill-opacity:1;stroke:none;stroke-width:23.30078697;stroke-linecap:round;stroke-linejoin:round;stroke-miterlimit:4;stroke-dasharray:none;stroke-opacity:1;paint-order:markers fill stroke"
     id="path920"
     cx="98.675499"
     cy="98.675499"
     r="98.675499" />
  <g
     id="g1046">
    <path
       sodipodi:nodetypes="cscczsccczccc"
       inkscape:connector-curvature="0"
       id="path897"
       d="m 175.77482,125.7351 c 0,0 0.68073,19.25683 -18.41059,18.80794 -7.61261,-0.17899 -18.01382,-3.20889 -17.46184,-24.78558 l -0.0216,-50.843553 c 0.0405,-22.887493 -21.92052,-35.36424 -37.6159,-35.231789 -15.695377,0.132451 -38.543047,7.549669 -38.543047,36.688742 0,29.139073 30.264305,39.75772 37.880797,40.5298 l -0.5298,36.15894 -21.059606,-0.39735 c -0.215706,-9.54287 -7.749095,-14.73941 -14.701986,-14.70199 -6.952891,0.0374 -15.496689,2.78146 -15.496689,14.70199 l -20,-0.2649 C 29.943689,131.31871 19.483433,70.37086 63.721843,70.37086"
       style="fill:none;stroke:#f7901e;stroke-width:23.30078697;stroke-linecap:round;stroke-linejoin:round;stroke-miterlimit:4;stroke-dasharray:none;stroke-opacity:1" />
    <ellipse
       ry="10.066225"
       rx="9.5364246"
       cy="71.430458"
       cx="101.60265"
       id="path918"
       style="opacity:1;fill:#f7901e;fill-opacity:1;stroke:none;stroke-width:23.30078697;stroke-linecap:round;stroke-linejoin:round;stroke-miterlimit:4;stroke-dasharray:none;stroke-opacity:1;paint-order:markers fill stroke" />
  </g>
  <g
     id="g1066">
    <path
       d="m 238.15732,103.3951 7.25419,-25.17116 -5.24399,-16.693374 h -4.98179 v -1.660597 h 27.09396 v 1.660597 h -5.15659 l 13.02258,41.340134 10.48798,-41.340134 h -8.82739 v -1.660597 h 17.47998 v 1.660597 h -5.7684 l -16.08157,60.393304 h -7.77859 L 246.72251,82.419134 235.36053,121.92387 h -7.60379 L 205.73198,61.530566 h -4.1078 v -1.660597 h 28.40496 v 1.660597 h -6.11799 z"
       style="font-style:normal;font-variant:normal;font-weight:normal;font-stretch:normal;font-size:medium;line-height:1.25;font-family:'Abril Fatface';-inkscape-font-specification:'Abril Fatface';letter-spacing:0px;word-spacing:0px;fill:#000000;fill-opacity:0;stroke:none;stroke-width:2.1849966"
       id="path930"
       inkscape:connector-curvature="0" />
    <path
       d="m 291.17627,59.869969 h 25.69556 q 13.19738,0 19.66497,3.845594 6.46759,3.758194 6.46759,13.546979 0,10.837583 -7.86599,14.945377 -7.34159,3.758194 -20.53897,3.758194 h -0.6992 v 23.423167 h 10.92499 v 1.66059 h -33.64895 v -1.66059 h 5.68099 V 61.530566 h -5.68099 z m 22.72396,1.660597 v 32.774949 h 1.8354 q 5.24399,0 7.25419,-3.583394 2.0102,-3.583395 2.0102,-11.624182 v -4.195194 q 0,-7.428988 -1.9228,-10.400583 -1.8354,-2.971596 -6.81719,-2.971596 z"
       style="font-style:normal;font-variant:normal;font-weight:normal;font-stretch:normal;font-size:medium;line-height:1.25;font-family:'Abril Fatface';-inkscape-font-specification:'Abril Fatface';letter-spacing:0px;word-spacing:0px;fill:#000000;fill-opacity:0;stroke:none;stroke-width:2.1849966"
       id="path932"
       inkscape:connector-curvature="0" />
    <path
       d="m 378.57614,120.17587 q 4.28259,0 5.41879,-1.57319 1.2236,-1.5732 1.2236,-5.3314 V 96.315712 h -5.59359 v -1.922797 h 25.17116 v 1.922797 h -3.40859 v 24.646758 h -1.311 q -1.5732,-2.18499 -4.4574,-2.18499 -1.22359,0 -7.34158,1.57319 -6.03059,1.5732 -10.31319,1.5732 -14.24618,0 -22.11216,-7.69119 -7.77859,-7.69118 -7.77859,-23.07356 0,-15.469776 8.12819,-23.860163 8.21558,-8.390387 22.02476,-8.390387 5.33139,0 10.66278,1.398398 5.4188,1.310998 6.2928,1.310998 0.87399,0 1.31099,-0.349599 0.437,-0.437 0.9614,-1.398398 h 0.9614 l 0.6992,18.96577 h -1.5732 q -4.28259,-8.477787 -8.65259,-13.284779 -4.28259,-4.894392 -9.61398,-4.894392 -13.37218,0 -13.37218,26.132559 v 6.904589 q 0,13.109974 3.2338,19.839764 3.32119,6.64239 9.43918,6.64239 z"
       style="font-style:normal;font-variant:normal;font-weight:normal;font-stretch:normal;font-size:medium;line-height:1.25;font-family:'Abril Fatface';-inkscape-font-specification:'Abril Fatface';letter-spacing:0px;word-spacing:0px;fill:#000000;fill-opacity:0;stroke:none;stroke-width:2.1849966"
       id="path934"
       inkscape:connector-curvature="0" />
    <path
       d="m 437.7158,81.894735 q -3.2338,0 -5.68099,4.195193 -2.4472,4.195194 -2.4472,9.963585 v 23.423167 h 6.20539 v 1.57319 h -27.26876 v -1.57319 h 4.80699 V 81.020736 h -4.80699 v -1.573198 h 21.06337 v 8.390387 q 1.1362,-4.457393 4.36999,-6.817189 3.2338,-2.447196 7.34159,-2.447196 4.10779,0 6.64239,2.359796 2.622,2.272397 2.622,6.55499 0,4.195193 -1.9228,6.46759 -1.9228,2.272396 -5.94319,2.272396 -3.933,0 -5.85579,-2.621996 -1.8354,-2.621996 -0.437,-7.254188 h 3.14639 q 2.185,-4.457393 -1.83539,-4.457393 z"
       style="font-style:normal;font-variant:normal;font-weight:normal;font-stretch:normal;font-size:medium;line-height:1.25;font-family:'Abril Fatface';-inkscape-font-specification:'Abril Fatface';letter-spacing:0px;word-spacing:0px;fill:#000000;fill-opacity:0;stroke:none;stroke-width:2.1849966"
       id="path936"
       inkscape:connector-curvature="0" />
    <path
       d="m 471.32241,100.51091 h 2.5346 v -6.729794 q 0,-8.302987 -0.9614,-11.099783 -0.874,-2.884195 -3.49599,-2.884195 -1.5732,0 -2.8842,0.873998 -1.2236,0.786599 -1.2236,2.272397 0,1.398398 0.5244,2.884195 h 2.185 q 0.6992,1.835398 0.6992,4.457394 0,2.534596 -2.185,4.457393 -2.185,1.835397 -5.50619,1.835397 -7.51639,0 -7.51639,-7.254189 0,-10.750183 18.26657,-10.750183 10.40059,0 14.33358,3.583394 4.02039,3.495995 4.02039,12.93518 v 17.742176 q 0,4.54479 2.5346,4.54479 2.9716,0 3.496,-9.00219 l 1.31099,0.0874 q -0.3496,7.69119 -2.88419,10.57539 -2.5346,2.88419 -8.30299,2.88419 -10.48798,0 -12.06118,-6.46759 -1.1362,3.3212 -3.4086,4.89439 -2.27239,1.5732 -6.64239,1.5732 -12.93517,0 -12.93517,-10.57538 0,-6.20539 4.89439,-8.47779 4.98179,-2.35979 15.20757,-2.35979 z m -3.49599,10.75018 q 0,4.54479 0.437,5.85579 0.5244,1.311 1.8354,1.311 1.39839,0 2.53459,-2.185 1.2236,-2.2724 1.2236,-6.20539 v -8.12819 h -0.6118 q -5.41879,0 -5.41879,7.95339 z"
       style="font-style:normal;font-variant:normal;font-weight:normal;font-stretch:normal;font-size:medium;line-height:1.25;font-family:'Abril Fatface';-inkscape-font-specification:'Abril Fatface';letter-spacing:0px;word-spacing:0px;fill:#000000;fill-opacity:0;stroke:none;stroke-width:2.1849966"
       id="path938"
       inkscape:connector-curvature="0" />
    <path
       d="m 529.3614,97.53931 q 0,-9.002186 -0.874,-12.061181 -0.874,-3.146395 -3.4086,-3.146395 -2.53459,0 -4.54479,3.321195 -2.0102,3.233795 -2.0102,8.739986 v 15.994175 q 0,3.75819 1.4858,6.38019 1.4858,2.622 4.36999,2.622 2.8842,0 3.933,-3.8456 1.0488,-3.84559 1.0488,-13.45958 z M 518.34901,79.447538 v 6.90459 q 3.4086,-7.778588 12.06118,-7.778588 7.51639,0 11.62419,5.418791 4.19519,5.418792 4.19519,16.431179 0,11.01238 -4.54479,16.25637 -4.4574,5.24399 -13.45958,5.24399 -4.1952,0 -6.29279,-1.0488 -2.0976,-1.0488 -3.4086,-3.23379 v 22.63656 h 11.27458 v 1.5732 h -32.33795 v -1.5732 h 4.807 V 81.020736 h -4.6322 v -1.573198 z"
       style="font-style:normal;font-variant:normal;font-weight:normal;font-stretch:normal;font-size:medium;line-height:1.25;font-family:'Abril Fatface';-inkscape-font-specification:'Abril Fatface';letter-spacing:0px;word-spacing:0px;fill:#000000;fill-opacity:0;stroke:none;stroke-width:2.1849966"
       id="path940"
       inkscape:connector-curvature="0" />
    <path
       d="m 548.84201,55.499976 h 21.06336 v 31.98835 q 1.3984,-4.020394 4.2826,-6.46759 2.88419,-2.447196 8.73998,-2.447196 13.54698,0 13.54698,14.595777 v 26.307363 h 4.89439 v 1.57319 h -24.73416 v -1.57319 h 3.5834 V 91.07172 q 0,-5.243992 -0.6992,-6.729789 -0.6992,-1.573198 -2.5346,-1.573198 -2.79679,0 -4.98179,3.670795 -2.0976,3.670794 -2.0976,8.914786 v 24.122366 h 3.7582 v 1.57319 h -24.82156 v -1.57319 H 553.649 V 57.073173 h -4.80699 z"
       style="font-style:normal;font-variant:normal;font-weight:normal;font-stretch:normal;font-size:medium;line-height:1.25;font-family:'Abril Fatface';-inkscape-font-specification:'Abril Fatface';letter-spacing:0px;word-spacing:0px;fill:#000000;fill-opacity:0;stroke:none;stroke-width:2.1849966"
       id="path942"
       inkscape:connector-curvature="0" />
    <path
       d="m 605.32279,91.42132 q 0,-15.294976 7.69119,-23.860163 7.77859,-8.652587 21.93737,-8.652587 14.15878,0 21.32557,8.215588 7.25418,8.128187 7.25418,23.160964 0,28.579758 -24.82156,30.852148 v 0.6118 q 4.9818,0.5244 7.34159,2.7094 2.4472,2.18499 3.6708,5.76839 1.22359,3.67079 2.18499,4.98179 0.9614,1.311 2.8842,1.311 3.32119,0 3.93299,-6.99199 l 1.9228,0.1748 q -0.1748,5.76839 -3.5834,8.82739 -3.40859,3.05899 -9.52658,3.05899 -6.03059,0 -9.35179,-3.05899 -3.32119,-2.9716 -5.06919,-8.82739 -1.1362,-3.5834 -1.9228,-4.63219 -0.78659,-1.0488 -2.01019,-1.0488 -2.4472,0 -6.46759,3.58339 l -1.2236,-1.3984 q 3.49599,-3.49599 7.95339,-4.28259 v -0.5244 q -11.88638,-1.2236 -18.00437,-9.00218 -6.118,-7.77859 -6.118,-20.97597 z m 40.20394,2.621996 v -6.46759 q 0,-15.994175 -1.5732,-20.189369 -1.74799,-4.806992 -4.98179,-5.943191 -1.83539,-0.699199 -4.45739,-0.699199 -2.622,0 -4.54479,0.699199 -1.8354,0.699199 -3.059,2.447197 -1.2236,1.747997 -2.0102,3.670794 -0.69919,1.922797 -1.13619,5.418791 -0.5244,5.069193 -0.5244,14.945377 v 6.29279 q 0,10.662785 0.7866,15.207575 0.87399,4.45739 2.09759,6.38019 2.7094,4.28259 8.39039,4.28259 6.90459,0 8.91479,-5.76839 2.09759,-5.85579 2.09759,-20.276764 z"
       style="font-style:normal;font-variant:normal;font-weight:normal;font-stretch:normal;font-size:medium;line-height:1.25;font-family:'Abril Fatface';-inkscape-font-specification:'Abril Fatface';letter-spacing:0px;word-spacing:0px;fill:#000000;fill-opacity:0;stroke:none;stroke-width:2.1849966"
       id="path944"
       inkscape:connector-curvature="0" />
    <path
       d="m 668.95398,59.869969 h 31.46395 v 1.922797 h -9.26439 v 57.334314 h 3.1464 q 7.42899,0 11.79898,-4.5448 4.45739,-4.54479 9.00219,-13.98397 h 1.83539 l -1.66059,20.45156 h -46.32193 v -1.92279 h 5.15659 V 61.792766 h -5.15659 z"
       style="font-style:normal;font-variant:normal;font-weight:normal;font-stretch:normal;font-size:medium;line-height:1.25;font-family:'Abril Fatface';-inkscape-font-specification:'Abril Fatface';letter-spacing:0px;word-spacing:0px;fill:#000000;fill-opacity:0;stroke:none;stroke-width:2.1849966"
       id="path946"
       inkscape:connector-curvature="0" />
  </g>
</svg>
